<svg width="283" height="400" viewBox="0 0 283 400" fill="none" xmlns="http://www.w3.org/2000/svg">
<path d="M250.633 208.198C250.836 200.911 250.33 183.907 250.33 183.907L235.856 144.838C235.856 144.838 216.423 187.652 174.115 211.032C170.168 212.753 166.221 214.676 162.476 216.7C158.427 218.421 154.176 219.939 149.723 221.255C110.755 232.591 109.439 240.182 119.662 245.142C96.7875 263.664 78.5689 284.008 66.1195 299.595C54.2775 314.474 52.0508 334.717 60.2491 351.822L75.9373 384.514C75.9373 384.514 169.662 236.943 280.289 231.579L250.633 208.198Z" fill="url(#paint0_linear_4303_3970)"/>
<path d="M96.5848 226.823C158.427 189.069 194.661 119.535 194.661 119.535L166.22 38.3608C166.22 38.3608 150.228 120.75 57.0099 179.657C-36.2085 238.563 24.0141 243.321 24.0141 243.321L5.08699 295.547L14.8036 321.053C14.8036 321.053 34.6416 264.576 96.5848 226.823Z" fill="url(#paint1_linear_4303_3970)"/>
<path d="M23.4076 180.769C-6.34945 226.113 -6.04581 278.745 14.8044 321.052C16.3226 302.125 22.0918 283.198 30.4926 266.093C46.5857 233.4 71.282 205.971 93.954 177.429C116.626 148.886 138.083 117.914 145.776 82.3881C151.444 56.5784 141.93 0.100586 141.93 0.100586L23.4076 180.769Z" fill="url(#paint2_linear_4303_3970)"/>
<path d="M259.541 180.769L235.958 144.838C236.97 159.818 237.072 175.405 234.744 186.032C226.545 223.583 203.975 256.174 180.088 286.235C156.201 316.296 130.189 345.243 113.287 379.656C110.655 384.919 108.327 390.283 106.303 395.85C117.335 398.583 128.874 400 141.019 400C253.671 400.101 321.282 275 259.541 180.769Z" fill="url(#paint3_linear_4303_3970)"/>
<path d="M190.512 207.49C218.954 132.793 182.213 63.9673 169.966 44.028L166.221 38.2588C159.743 134.109 108.428 186.538 108.428 186.538H128.063C125.128 190.587 122.092 194.635 119.055 198.583C117.031 201.214 115.007 203.745 112.982 206.376C111.059 208.704 109.237 211.133 107.314 213.461C81.3022 247.874 24.0149 333.3 61.2617 374.798C64.2982 377.429 67.6382 379.757 71.2819 381.883C72.9014 382.793 74.4196 383.603 76.039 384.514C83.3264 313.158 213.488 207.49 213.488 207.49H190.512Z" fill="url(#paint4_linear_4303_3970)"/>
<path d="M104.986 109.514C88.792 137.045 67.8406 161.437 49.622 187.551C31.4034 213.664 15.3104 242.51 10.8569 274.089C8.73142 288.867 10.2496 304.859 14.9055 319.838C16.5249 301.316 22.2941 282.693 30.4925 265.992C46.5856 233.3 71.2819 205.871 93.9539 177.328C116.626 148.786 138.083 117.814 145.776 82.2875C151.342 56.4778 141.929 0.303644 141.929 0C137.375 38.4616 124.622 76.3158 104.986 109.514Z" fill="url(#paint5_linear_4303_3970)"/>
<path d="M213.49 207.49H190.514C218.955 132.793 182.214 63.9673 169.967 44.028L166.222 38.2588C166.222 38.2588 190.615 145.243 152.154 196.963H167.943C167.943 196.963 49.1174 287.955 76.0404 384.514C83.3279 313.158 213.49 207.49 213.49 207.49Z" fill="url(#paint6_linear_4303_3970)"/>
<path d="M259.541 180.769L235.958 144.838C235.958 145.142 235.958 145.546 236.06 145.85C251.849 172.368 258.63 206.579 254.582 236.64C245.169 306.376 189.299 362.551 126.748 389.575C120.169 392.409 113.287 394.433 106.303 395.85C117.335 398.583 128.874 400 141.019 400C253.671 400.101 321.282 275 259.541 180.769Z" fill="url(#paint7_linear_4303_3970)"/>
<path d="M49.6225 187.652C31.3027 213.867 15.3109 242.612 10.8574 274.191C23.408 210.021 75.4322 165.385 104.987 109.515C88.6913 137.045 67.8411 161.438 49.6225 187.652Z" fill="url(#paint8_linear_4303_3970)"/>
<path d="M76.0391 324.798C88.5896 286.843 112.577 254.151 139.703 225.304C149.318 215.183 159.44 205.365 170.067 196.256C164.096 196.56 158.124 196.762 152.152 197.066H167.942C167.942 197.066 94.1564 253.543 76.0391 324.798Z" fill="url(#paint9_linear_4303_3970)"/>
<path d="M176.242 360.83L176.141 360.931C218.145 333.401 250.938 287.652 254.582 236.64C247.8 287.146 216.728 330.466 176.242 360.83Z" fill="url(#paint10_linear_4303_3970)"/>
<defs>
<linearGradient id="paint0_linear_4303_3970" x1="55.3994" y1="264.7" x2="280.402" y2="264.7" gradientUnits="userSpaceOnUse">
<stop stop-color="#6B2804"/>
<stop offset="1" stop-color="#FF600A"/>
</linearGradient>
<linearGradient id="paint1_linear_4303_3970" x1="4.81452" y1="179.685" x2="194.628" y2="179.685" gradientUnits="userSpaceOnUse">
<stop stop-color="#6B2804"/>
<stop offset="1" stop-color="#FF600A"/>
</linearGradient>
<linearGradient id="paint2_linear_4303_3970" x1="-0.0461229" y1="160.506" x2="147.505" y2="160.506" gradientUnits="userSpaceOnUse">
<stop stop-color="#FF600A"/>
<stop offset="0.5004" stop-color="#FFBA0A"/>
<stop offset="1" stop-color="#FFFB0A"/>
</linearGradient>
<linearGradient id="paint3_linear_4303_3970" x1="106.305" y1="272.474" x2="282.953" y2="272.474" gradientUnits="userSpaceOnUse">
<stop stop-color="#FF600A"/>
<stop offset="0.5004" stop-color="#FFBA0A"/>
<stop offset="1" stop-color="#FFFB0A"/>
</linearGradient>
<linearGradient id="paint4_linear_4303_3970" x1="48.9684" y1="211.46" x2="213.493" y2="211.46" gradientUnits="userSpaceOnUse">
<stop stop-color="#FF600A"/>
<stop offset="0.5004" stop-color="#FFBA0A"/>
<stop offset="1" stop-color="#FFFB0A"/>
</linearGradient>
<linearGradient id="paint5_linear_4303_3970" x1="9.86391" y1="159.967" x2="147.505" y2="159.967" gradientUnits="userSpaceOnUse">
<stop stop-color="#FFFB0A"/>
<stop offset="0.0521425" stop-color="#CFCC08"/>
<stop offset="0.1193" stop-color="#999706"/>
<stop offset="0.1871" stop-color="#6A6904"/>
<stop offset="0.2543" stop-color="#444303"/>
<stop offset="0.3204" stop-color="#262601"/>
<stop offset="0.3855" stop-color="#111101"/>
<stop offset="0.4488" stop-color="#040400"/>
<stop offset="0.5086"/>
<stop offset="0.5636" stop-color="#050400"/>
<stop offset="0.6246" stop-color="#120E02"/>
<stop offset="0.6884" stop-color="#282004"/>
<stop offset="0.7542" stop-color="#473907"/>
<stop offset="0.8215" stop-color="#6F590B"/>
<stop offset="0.8901" stop-color="#A08110"/>
<stop offset="0.9584" stop-color="#D9AE15"/>
<stop offset="1" stop-color="#FFCD19"/>
</linearGradient>
<linearGradient id="paint6_linear_4303_3970" x1="142.767" y1="384.565" x2="142.767" y2="38.3545" gradientUnits="userSpaceOnUse">
<stop stop-color="#FFFB0A"/>
<stop offset="0.0521425" stop-color="#CFCC08"/>
<stop offset="0.1193" stop-color="#999706"/>
<stop offset="0.1871" stop-color="#6A6904"/>
<stop offset="0.2543" stop-color="#444303"/>
<stop offset="0.3204" stop-color="#262601"/>
<stop offset="0.3855" stop-color="#111101"/>
<stop offset="0.4488" stop-color="#040400"/>
<stop offset="0.5086"/>
<stop offset="0.5636" stop-color="#050400"/>
<stop offset="0.6246" stop-color="#120E02"/>
<stop offset="0.6884" stop-color="#282004"/>
<stop offset="0.7542" stop-color="#473907"/>
<stop offset="0.8215" stop-color="#6F590B"/>
<stop offset="0.8901" stop-color="#A08110"/>
<stop offset="0.9584" stop-color="#D9AE15"/>
<stop offset="1" stop-color="#FFCD19"/>
</linearGradient>
<linearGradient id="paint7_linear_4303_3970" x1="106.305" y1="272.473" x2="282.953" y2="272.473" gradientUnits="userSpaceOnUse">
<stop stop-color="#FFFB0A"/>
<stop offset="0.0521425" stop-color="#CFCC08"/>
<stop offset="0.1193" stop-color="#999706"/>
<stop offset="0.1871" stop-color="#6A6904"/>
<stop offset="0.2543" stop-color="#444303"/>
<stop offset="0.3204" stop-color="#262601"/>
<stop offset="0.3855" stop-color="#111101"/>
<stop offset="0.4488" stop-color="#040400"/>
<stop offset="0.5086"/>
<stop offset="0.5636" stop-color="#050400"/>
<stop offset="0.6246" stop-color="#120E02"/>
<stop offset="0.6884" stop-color="#282004"/>
<stop offset="0.7542" stop-color="#473907"/>
<stop offset="0.8215" stop-color="#6F590B"/>
<stop offset="0.8901" stop-color="#A08110"/>
<stop offset="0.9584" stop-color="#D9AE15"/>
<stop offset="1" stop-color="#FFCD19"/>
</linearGradient>
<linearGradient id="paint8_linear_4303_3970" x1="10.8004" y1="191.856" x2="104.978" y2="191.856" gradientUnits="userSpaceOnUse">
<stop/>
<stop offset="0.0674502" stop-color="#040300"/>
<stop offset="0.1306" stop-color="#0F0C00"/>
<stop offset="0.1921" stop-color="#221B00"/>
<stop offset="0.2526" stop-color="#3D2F00"/>
<stop offset="0.3123" stop-color="#5F4A00"/>
<stop offset="0.3715" stop-color="#896B00"/>
<stop offset="0.4303" stop-color="#BB9200"/>
<stop offset="0.4873" stop-color="#F4BE00"/>
<stop offset="0.498" stop-color="#FFC700"/>
<stop offset="0.5046" stop-color="#F8C200"/>
<stop offset="0.5636" stop-color="#BF9500"/>
<stop offset="0.6242" stop-color="#8C6D00"/>
<stop offset="0.6851" stop-color="#614C00"/>
<stop offset="0.7463" stop-color="#3E3000"/>
<stop offset="0.808" stop-color="#231B00"/>
<stop offset="0.8703" stop-color="#0F0C00"/>
<stop offset="0.9338" stop-color="#040300"/>
<stop offset="1"/>
</linearGradient>
<linearGradient id="paint9_linear_4303_3970" x1="76.0313" y1="260.471" x2="170.042" y2="260.471" gradientUnits="userSpaceOnUse">
<stop/>
<stop offset="0.0674502" stop-color="#040300"/>
<stop offset="0.1306" stop-color="#0F0C00"/>
<stop offset="0.1921" stop-color="#221B00"/>
<stop offset="0.2526" stop-color="#3D2F00"/>
<stop offset="0.3123" stop-color="#5F4A00"/>
<stop offset="0.3715" stop-color="#896B00"/>
<stop offset="0.4303" stop-color="#BB9200"/>
<stop offset="0.4873" stop-color="#F4BE00"/>
<stop offset="0.498" stop-color="#FFC700"/>
<stop offset="0.5046" stop-color="#F8C200"/>
<stop offset="0.5636" stop-color="#BF9500"/>
<stop offset="0.6242" stop-color="#8C6D00"/>
<stop offset="0.6851" stop-color="#614C00"/>
<stop offset="0.7463" stop-color="#3E3000"/>
<stop offset="0.808" stop-color="#231B00"/>
<stop offset="0.8703" stop-color="#0F0C00"/>
<stop offset="0.9338" stop-color="#040300"/>
<stop offset="1"/>
</linearGradient>
<linearGradient id="paint10_linear_4303_3970" x1="176.157" y1="298.82" x2="254.608" y2="298.82" gradientUnits="userSpaceOnUse">
<stop/>
<stop offset="0.0674502" stop-color="#040300"/>
<stop offset="0.1306" stop-color="#0F0C00"/>
<stop offset="0.1921" stop-color="#221B00"/>
<stop offset="0.2526" stop-color="#3D2F00"/>
<stop offset="0.3123" stop-color="#5F4A00"/>
<stop offset="0.3715" stop-color="#896B00"/>
<stop offset="0.4303" stop-color="#BB9200"/>
<stop offset="0.4873" stop-color="#F4BE00"/>
<stop offset="0.498" stop-color="#FFC700"/>
<stop offset="0.5046" stop-color="#F8C200"/>
<stop offset="0.5636" stop-color="#BF9500"/>
<stop offset="0.6242" stop-color="#8C6D00"/>
<stop offset="0.6851" stop-color="#614C00"/>
<stop offset="0.7463" stop-color="#3E3000"/>
<stop offset="0.808" stop-color="#231B00"/>
<stop offset="0.8703" stop-color="#0F0C00"/>
<stop offset="0.9338" stop-color="#040300"/>
<stop offset="1"/>
</linearGradient>
</defs>
</svg>
