<svg width="432" height="400" viewBox="0 0 432 400" fill="none" xmlns="http://www.w3.org/2000/svg">
<path d="M72.4985 190.029C65.2879 182.931 60.218 174.144 56.2748 165.018C52.4442 155.779 50.0782 145.977 49.0642 135.95C48.0502 125.923 48.7262 115.783 50.1909 105.981C50.8668 101.024 52.1062 96.1796 53.1201 91.4477C54.4721 86.7158 55.8241 81.9839 57.6267 77.4773C64.612 59.3383 74.9771 43.2272 87.8209 30.4961C100.552 17.6523 115.424 7.62517 131.535 1.54127C132.324 1.20328 133.225 1.65394 133.563 2.4426C133.676 2.78059 133.676 3.23125 133.563 3.56924C130.521 11.3431 128.042 18.8916 126.014 26.2148C123.986 33.5381 122.409 40.8613 121.508 47.8465C119.367 61.9296 119.818 75.224 121.733 87.0538C121.846 88.5184 122.409 89.9831 122.634 91.4477C122.972 92.9124 123.198 94.377 123.536 95.729C124.437 98.5456 125.226 101.362 126.014 104.066C127.817 109.474 130.296 114.544 132.324 119.501C134.464 124.458 136.38 129.303 138.182 134.26C139.872 139.33 141.562 144.4 142.238 150.484L143.027 157.582C145.505 179.664 128.944 199.493 106.298 201.859C93.4542 203.211 81.061 198.367 72.4985 190.029Z" fill="url(#paint0_linear_4455_42574)"/>
<path d="M135.365 318.917C125.563 321.621 115.424 321.621 105.622 320.495C95.7072 319.255 86.018 316.326 76.7795 312.27C67.541 308.214 59.0911 302.468 51.3172 296.385C47.3739 293.343 43.7687 289.85 40.1634 286.583C36.7834 282.977 33.4035 279.485 30.2489 275.767C18.0811 260.444 9.29321 243.432 4.67395 225.856C-0.170644 208.506 -1.29729 190.592 1.51933 173.467C1.632 172.679 2.42065 172.003 3.2093 172.115C3.5473 172.115 3.88529 172.341 4.11062 172.679C9.29321 179.213 14.5885 185.072 19.9964 190.592C25.4043 196 30.9249 200.958 36.4454 205.351C47.5993 214.252 59.3164 220.449 70.5829 224.73C71.9349 225.293 73.5122 225.631 74.8642 226.082C76.3288 226.532 77.6808 226.983 79.0328 227.434C81.9621 228.11 84.7787 228.786 87.4827 229.462C93.1159 230.588 98.7491 230.926 104.044 231.715C109.34 232.391 114.522 233.067 119.817 233.968C125 235.095 130.295 236.109 135.816 238.475L142.35 241.291C162.743 250.192 171.643 274.415 162.292 295.258C157.222 307.313 146.857 315.65 135.365 318.917Z" fill="url(#paint1_linear_4455_42574)"/>
<path d="M278.337 328.832C275.746 338.634 270.789 347.422 264.818 355.421C258.734 363.42 251.41 370.405 243.299 376.264C235.187 382.123 226.061 386.629 216.822 390.347C212.203 392.15 207.358 393.614 202.739 395.079C197.895 396.318 193.163 397.445 188.431 398.234C169.165 401.276 150.125 400.374 132.662 395.642C115.199 391.136 99.0875 383.137 85.793 372.208C85.1171 371.645 85.0044 370.743 85.5677 370.067C85.793 369.729 86.131 369.617 86.469 369.504C94.6936 368.265 102.467 366.688 109.903 364.66C117.339 362.744 124.324 360.378 130.972 357.787C144.153 352.604 155.533 345.619 164.884 337.958C166.123 337.057 167.137 335.93 168.264 334.916C169.39 333.902 170.517 333.001 171.531 331.987C173.559 329.734 175.587 327.706 177.502 325.678C181.333 321.396 184.375 316.664 187.642 312.496C190.909 308.215 194.064 304.046 197.557 299.99C201.162 296.047 204.655 291.991 209.499 288.386L215.245 284.217C233.159 271.035 258.621 275.429 272.028 293.906C279.239 304.159 281.267 317.34 278.337 328.832Z" fill="url(#paint2_linear_4455_42574)"/>
<path d="M358.442 210.084C365.652 217.182 370.722 225.97 374.666 235.096C378.496 244.334 380.862 254.136 381.876 264.163C382.89 274.19 382.214 284.33 380.75 294.132C380.074 299.089 378.834 303.934 377.82 308.666C376.468 313.398 375.116 318.129 373.314 322.636C366.328 340.775 355.963 356.886 343.119 369.617C330.388 382.461 315.517 392.488 299.405 398.572C298.617 398.91 297.716 398.459 297.378 397.671C297.265 397.333 297.265 396.882 297.378 396.544C300.419 388.77 302.898 381.222 304.926 373.898C306.954 366.575 308.531 359.252 309.433 352.267C311.573 338.184 311.123 324.889 309.207 313.06C309.095 311.595 308.531 310.13 308.306 308.666C307.968 307.201 307.743 305.736 307.405 304.384C306.503 301.568 305.715 298.751 304.926 296.047C303.123 290.639 300.645 285.569 298.617 280.612C296.476 275.655 294.561 270.81 292.758 265.853C291.068 260.783 289.378 255.713 288.702 249.629L287.914 242.531C285.435 220.449 301.997 200.62 324.642 198.254C337.599 196.902 349.879 201.747 358.442 210.084Z" fill="url(#paint3_linear_4455_42574)"/>
<path d="M295.686 81.1951C305.488 78.4911 315.628 78.4911 325.43 79.6178C335.344 80.8571 345.034 83.7864 354.272 87.8423C363.511 91.8982 371.961 97.6441 379.734 103.728C383.678 106.77 387.283 110.263 390.888 113.53C394.268 117.135 397.648 120.628 400.803 124.346C413.083 139.443 421.758 156.455 426.49 174.031C431.335 191.381 432.462 209.295 429.645 226.42C429.532 227.209 428.744 227.885 427.955 227.772C427.617 227.772 427.279 227.547 427.054 227.209C421.871 220.674 416.576 214.815 411.168 209.295C405.76 203.887 400.239 198.93 394.719 194.536C383.565 185.635 371.848 179.439 360.581 175.157C359.229 174.594 357.652 174.256 356.3 173.805C354.835 173.355 353.483 172.904 352.131 172.453C349.202 171.778 346.386 171.102 343.682 170.426C338.048 169.299 332.415 168.961 327.12 168.172C321.825 167.496 316.642 166.82 311.347 165.919C306.164 164.792 300.869 163.778 295.348 161.412L288.814 158.596C268.421 149.695 259.521 125.472 268.872 104.629C273.829 92.7996 284.195 84.4624 295.686 81.1951Z" fill="url(#paint4_linear_4455_42574)"/>
<path d="M152.716 71.168C155.308 61.3661 160.265 52.5783 166.236 44.5791C172.32 36.5799 179.643 29.5947 187.755 23.7361C195.867 17.8776 204.993 13.371 214.231 9.65304C218.851 7.8504 223.695 6.38575 228.315 4.92111C233.159 3.6818 237.891 2.55516 242.623 1.7665C261.889 -1.27544 280.929 -0.37413 298.392 4.35779C315.855 8.86438 331.966 16.8636 345.261 27.7921C345.937 28.3554 346.049 29.2567 345.486 29.9327C345.261 30.2707 344.923 30.3833 344.585 30.496C336.36 31.7353 328.586 33.3126 321.15 35.3406C313.715 37.2559 306.729 39.6219 300.082 42.2131C286.9 47.3957 275.521 54.3809 266.17 62.0421C264.931 62.9435 263.917 64.0701 262.79 65.0841C261.663 66.0981 260.537 66.9994 259.523 68.0134C257.495 70.2667 255.467 72.2946 253.551 74.3226C249.721 78.6039 246.679 83.3358 243.412 87.5044C240.144 91.7856 236.99 95.9542 233.497 100.01C229.892 103.953 226.399 108.009 221.555 111.615L215.809 115.783C197.895 128.965 172.433 124.571 159.026 106.094C151.702 95.9542 149.674 82.7724 152.716 71.168Z" fill="url(#paint5_linear_4455_42574)"/>
<defs>
<linearGradient id="paint0_linear_4455_42574" x1="87.0363" y1="18.1619" x2="100.976" y2="186.05" gradientUnits="userSpaceOnUse">
<stop offset="0.00333344" stop-color="#FBCB3B"/>
<stop offset="0.2484" stop-color="#FBC73B"/>
<stop offset="0.4899" stop-color="#FBBB3B"/>
<stop offset="0.7299" stop-color="#FBA73B"/>
<stop offset="0.9677" stop-color="#FB8C3B"/>
<stop offset="0.9967" stop-color="#FB883B"/>
</linearGradient>
<linearGradient id="paint1_linear_4455_42574" x1="-17.1266" y1="203.878" x2="154.789" y2="302.963" gradientUnits="userSpaceOnUse">
<stop offset="0.00333344" stop-color="#FBCB3B"/>
<stop offset="0.2909" stop-color="#FBBC3B"/>
<stop offset="0.8437" stop-color="#FB943B"/>
<stop offset="0.9967" stop-color="#FB883B"/>
</linearGradient>
<linearGradient id="paint2_linear_4455_42574" x1="135.892" y1="393.682" x2="256.995" y2="305.607" gradientUnits="userSpaceOnUse">
<stop offset="0.00333344" stop-color="#FBCB3B"/>
<stop offset="0.2909" stop-color="#FBBC3B"/>
<stop offset="0.8437" stop-color="#FB943B"/>
<stop offset="0.9967" stop-color="#FB883B"/>
</linearGradient>
<linearGradient id="paint3_linear_4455_42574" x1="324.841" y1="381.004" x2="338.391" y2="216.71" gradientUnits="userSpaceOnUse">
<stop offset="0.00333344" stop-color="#FBCB3B"/>
<stop offset="0.2909" stop-color="#FBBC3B"/>
<stop offset="0.8437" stop-color="#FB943B"/>
<stop offset="0.9967" stop-color="#FB883B"/>
</linearGradient>
<linearGradient id="paint4_linear_4455_42574" x1="264.782" y1="153.423" x2="430.96" y2="153.423" gradientUnits="userSpaceOnUse">
<stop offset="0.00333336" stop-color="#FB883B"/>
<stop offset="0.1563" stop-color="#FB943B"/>
<stop offset="0.7091" stop-color="#FBBC3B"/>
<stop offset="0.9967" stop-color="#FBCB3B"/>
</linearGradient>
<linearGradient id="paint5_linear_4455_42574" x1="163.949" y1="96.6254" x2="297.755" y2="6.00961" gradientUnits="userSpaceOnUse">
<stop offset="0.00333336" stop-color="#FB883B"/>
<stop offset="0.1563" stop-color="#FB943B"/>
<stop offset="0.7091" stop-color="#FBBC3B"/>
<stop offset="0.9967" stop-color="#FBCB3B"/>
</linearGradient>
</defs>
</svg>
