<svg width="354" height="400" viewBox="0 0 354 400" fill="none" xmlns="http://www.w3.org/2000/svg">
<path d="M202.602 91.3932L202.659 91.3369C202.647 91.3481 202.625 91.3594 202.614 91.3707C202.614 91.3819 202.602 91.3819 202.602 91.3932ZM166.957 69.72C166.991 69.6975 167.036 69.6862 167.07 69.6637C167.07 69.6524 167.081 69.6299 167.081 69.6187L166.957 69.72Z" fill="#111111"/>
<path d="M0 391.294C3.69289 395.178 7.08179 394.931 10.1442 395.223C50.7209 399.288 91.4327 399.693 132.167 399.896C185.489 400.155 238.822 400.222 292.065 396.473C298.415 396.034 304.742 394.953 311.069 394.086C311.722 393.996 312.297 393.354 314.323 392.082C294.846 387.038 276.066 388.783 256.115 386.194C263.253 382.467 269.108 379.731 274.647 376.477C294.913 364.521 311.272 350.087 323.769 333.187C336.255 316.277 344.88 296.923 349.665 275.114V275.103C349.698 274.957 349.721 274.788 349.755 274.642C355.744 243.826 352.614 218.854 348.798 203.002C348.449 202.169 348.325 201.144 348.1 200.232C348.066 200.108 348.032 199.973 347.998 199.849C346.422 194.535 344.654 189.379 342.695 184.402C342.628 184.245 342.583 184.155 342.583 184.155C327.383 145.863 300.396 117.683 261.677 99.691C250.024 94.2755 237.685 90.9429 225.097 88.4547C220.605 87.5765 217.182 89.2653 214.21 92.4628C210.663 96.2908 207.207 100.243 202.805 103.147C193.663 111.738 182.753 117.288 171.089 121.522C169.873 121.961 168.24 122.681 167.576 121.026C166.9 119.338 168.713 118.82 169.805 118.2C180.614 112.154 190.521 104.915 199.146 95.9868H199.123C199.844 94.1291 200.981 92.5642 202.613 91.3707C203.751 88.4209 204.73 85.4824 202.411 82.6226C202.411 82.6226 202.636 82.5776 202.636 82.5664C201.87 82.4538 201.521 81.9696 201.409 81.2716C199.54 79.5603 197.93 77.6462 197.018 75.2369L197.007 75.2143C196.399 74.4487 195.813 73.6719 195.205 72.895C194.856 72.6699 194.653 72.3546 194.62 71.938C194.293 71.4877 193.955 71.0148 193.629 70.5532L193.561 70.4631C192.323 69.6638 191.478 68.5942 191.107 67.1418V67.1305C189.812 66.3311 189.08 65.1265 188.765 63.6628L188.821 63.6853C188.416 63.28 188.011 62.8747 187.605 62.4469L187.639 62.5032C183.417 59.407 178.643 58.3262 173.487 58.6414C170.773 58.8215 169.017 59.756 169.76 62.976C170.424 65.8245 169.85 68.2226 167.047 69.6525C166.349 71.7917 164.581 72.9851 162.926 74.2573C151.847 82.9266 139.159 88.3759 125.873 92.5754C118.319 94.9623 110.663 96.7975 102.624 96.2458C99.3927 96.0206 96.3979 95.4802 95.7449 91.5171C94.8216 91.1118 93.9097 90.9091 92.9977 90.9091C91.9844 90.9091 90.9824 91.1456 89.9803 91.5846L90.0141 91.5284C89.6088 91.9449 89.2147 92.3615 88.7982 92.7893C83.5628 98.0359 81.5588 104.296 83.788 111.389C88.4604 126.217 83.3489 137.16 74.0491 149.432C46.8141 185.348 38.1448 225.891 45.9021 269.474C45.9021 269.485 45.9021 269.496 45.9134 269.507C45.9134 269.519 45.9246 269.553 45.9246 269.598C46.4651 272.097 55.3032 312.088 79.9037 341.62C80.2978 342.093 80.7031 342.577 81.1309 343.05V343.061C94.5627 358.565 110.697 371.062 129.69 380.418C131.728 381.42 133.71 382.568 135.657 384.223C90.881 386.667 45.8684 385.079 0 391.294ZM69.6244 278.638C72.2815 277.907 73.8915 279.449 74.8147 281.994C77.0327 288.163 79.2169 294.367 81.7389 300.424C84.9364 308.08 88.9333 315.331 93.6057 322.21C94.5064 323.527 96.6456 325.543 94.8216 326.995C93.099 328.368 92.0182 325.711 90.8923 324.676C88.922 322.874 87.1544 320.836 85.4768 318.765C76.9539 308.305 71.1781 296.348 67.0236 284.606C66.3256 281.183 67.3276 279.269 69.6244 278.638ZM69.2191 205.715C72.5968 206.346 73.2047 209.183 72.5855 212.065C69.2079 227.895 68.1495 243.815 70.1761 259.915C70.5477 262.944 69.7032 265.488 66.1905 265.781C62.7566 266.062 61.5293 263.664 61.0114 260.726C59.8856 254.421 59.7505 248.037 59.7505 241.045C59.3902 231.137 60.775 220.824 63.297 210.646C64.0964 207.483 65.6276 205.04 69.2191 205.715ZM102.241 152.315C93.3918 163.36 85.6795 175.057 80.3766 188.264C79.2169 191.146 77.4268 194.456 73.5988 192.722C69.6695 190.944 71.347 187.555 72.6418 184.729C78.8792 171.038 87.6948 159.171 98.2668 148.554C99.3477 147.473 100.372 146.257 102.568 146.201C102.86 146.404 103.716 146.663 103.998 147.237C105.078 149.421 103.401 150.851 102.241 152.315Z" fill="#111111"/>
<path d="M188.055 48.3166C198.627 55.0269 208.141 63.471 220.514 67.1639C244.54 74.3582 267.418 70.3501 289.947 61.0391C289.283 58.382 287.211 58.4608 285.736 57.8191C283.057 56.6707 280.433 55.7362 283.057 52.1108C283.777 51.1088 283.879 49.3862 282.674 49.0484C275.896 47.1344 279.488 43.0813 280.478 39.5122C280.557 39.2195 280.298 38.8255 280.129 38.24C277.101 38.2062 274.815 40.1202 272.293 41.3587C247.603 53.5407 223.745 53.8897 200.53 37.283C190.014 29.7509 178.26 25.1348 164.873 24.9884C155.731 24.8871 147.85 27.8143 140.239 32.2728C137.48 35.369 134.722 38.4652 131.952 41.5613L131.964 41.5726C131.198 42.9011 130.432 44.2297 129.667 45.5582C129.813 45.8059 129.768 45.9973 129.52 46.1324C128.406 50.6247 126.863 55.0719 126.312 59.6317C125.816 63.7412 124.049 66.0267 120.153 66.8936C119.399 67.3327 118.633 67.7606 117.879 68.1997C117.147 68.6613 116.415 69.1229 115.683 69.5845V69.4494C115.267 69.8772 114.85 70.2938 114.434 70.7216L114.546 70.609C114.13 71.0481 113.724 71.4985 113.308 71.9376L113.477 71.7912C113.398 72.782 113.06 73.6377 112.148 74.1668L112.204 74.0993C111.934 75.4053 111.743 76.7451 111.371 78.0286C109.164 85.4819 109.896 86.7429 117.496 86.0786C129.813 84.9978 140.993 80.5956 150.957 73.2211C153.04 71.6786 154.571 69.7872 154.898 67.1076L155.067 67.2427C154.706 66.8036 154.346 66.3645 153.986 65.9254L153.941 65.8804C150.135 64.5518 147.14 61.0278 143.031 60.9152C137.886 60.7689 137.728 58.2807 139.147 54.599C139.969 52.4711 140.554 50.1856 142.333 48.5418L142.389 48.4405C142.738 48.0352 143.076 47.6298 143.425 47.2358L143.414 47.2245C144.72 44.0721 147.174 42.3044 150.405 41.4825L150.496 41.4375C158.726 36.7201 166.967 37.4181 175.231 41.3587C175.569 41.3024 175.839 41.415 176.053 41.6852C177.719 41.6514 179.059 42.3269 180.061 43.6442L180.433 43.6217L180.703 43.8807C183.551 44.7138 185.826 46.4814 188.055 48.3166Z" fill="#111111"/>
<path d="M273.725 91.1792C274.187 93.1832 271.507 96.4933 273.849 97.3265C276.63 98.3172 277.114 94.3654 278.442 92.4514C280.559 89.4115 281.876 85.1219 287.1 88.7472C288.913 90.0082 290.23 87.8015 290.996 86.2703C292.854 82.5099 295.06 82.5662 298.213 84.9193C302.063 87.7902 306.297 90.1659 310.215 92.958C311.532 93.9038 312.624 95.1985 314.223 94.0276C315.889 92.8117 314.82 91.1904 314.358 89.7831C313.029 85.7411 311.926 81.5867 310.17 77.7361C308.031 73.0187 310.158 71.9941 314.29 71.6339C320.64 71.0822 326.957 70.2603 333.284 69.4947C334.556 69.3371 336.414 69.7762 336.786 68.1549C337.236 66.2297 335.311 65.7568 333.993 65.0362C328.386 61.9738 322.847 58.7988 317.173 55.8828C312.928 53.7099 311.251 51.627 315.247 47.3374C320.111 42.1133 324.378 36.3263 328.893 30.7869C329.861 29.6048 331.302 28.3776 330.368 26.7338C329.31 24.8761 327.52 26.2046 326.168 26.441C321.215 27.2967 316.249 28.1974 311.386 29.4584C306.567 30.7081 305.914 28.7266 306.938 24.6847C308.638 17.9294 310.215 11.1403 311.802 4.36253C312.14 2.91015 312.894 1.14252 311.104 0.219297C309.584 -0.568819 308.717 0.951113 307.772 1.87434C303.189 6.32156 298.494 10.6675 294.047 15.2498C290.658 18.74 288.204 19.303 285.986 14.1239C284.714 11.1403 282.755 8.43822 281.054 5.63478C280.458 4.65526 279.793 3.50686 278.409 3.83337C277.046 4.14862 276.922 5.49967 276.697 6.60303C276.202 9.06871 275.414 11.5682 275.459 14.0338C275.549 19.697 272.633 19.7646 268.962 17.5691C263.919 14.5517 260.755 14.9008 259.742 21.3521C259.257 24.4145 256.972 25.1575 254.18 25.3264C250.521 25.5403 246.85 25.9119 243.214 26.4073C239.971 26.8464 240.174 28.6928 242.403 30.0439C247.852 33.3427 253.448 36.4163 259.111 39.3436C261.25 40.447 262.286 38.3416 263.04 36.878C265.315 32.5095 268.028 29.6723 273.466 32.1267C274.783 32.7235 276.742 32.6784 277.801 31.3048C280.717 27.4994 282.349 28.7041 283.554 32.5433C284.635 35.9998 286.47 36.9455 289.442 34.3222C290.388 33.4891 291.345 31.9128 292.842 33.0049C294.058 33.8944 293.574 35.5044 293.473 36.8217C293.36 38.3641 293.045 39.8953 292.899 41.4265C292.572 44.7253 292.831 47.2586 297.436 46.3804C300.183 45.8625 301.917 47.3036 299.744 50.0057C297.132 53.2708 297.425 55.6689 300.532 58.3823C302.761 60.33 302.705 62.2891 299.012 61.94C295.173 61.5685 294.7 63.4938 295.421 66.5224C296.13 69.5285 295.995 71.5213 292.201 69.247C289.6 67.6933 288.587 69.8888 287.81 71.4988C286.11 75.0565 284.365 75.2705 281.144 72.9624C276.844 69.8775 275.684 70.6544 275.177 75.9798C274.682 80.9562 274.22 85.9663 273.725 91.1792Z" fill="#FBC00D"/>
</svg>
