<svg width="104" height="400" viewBox="0 0 104 400" fill="none" xmlns="http://www.w3.org/2000/svg">
<path fill-rule="evenodd" clip-rule="evenodd" d="M60.2472 128.755L92.726 98.016C94.6516 96.2065 96.2291 97.6912 96.2291 101.333V156.037C96.2291 159.679 94.6516 164.157 92.726 165.966L60.2472 196.705C58.3217 198.515 56.7441 197.03 56.7441 193.388V138.684C56.7673 135.042 58.3217 130.564 60.2472 128.755Z" fill="#333333"/>
<path fill-rule="evenodd" clip-rule="evenodd" d="M91.4269 167.219L60.2472 196.728C58.3217 198.538 56.7441 197.053 56.7441 193.411V138.684C56.7441 135.042 58.3217 130.564 60.2472 128.755L91.4269 167.219Z" fill="#333333"/>
<path opacity="0.15" fill-rule="evenodd" clip-rule="evenodd" d="M91.4269 167.219L60.2472 196.728C58.3217 198.538 56.7441 197.053 56.7441 193.411V138.684C56.7441 135.042 58.3217 130.564 60.2472 128.755L91.4269 167.219Z" fill="black"/>
<path fill-rule="evenodd" clip-rule="evenodd" d="M42.9194 128.755L10.4406 98.016C8.51504 96.2065 6.9375 97.6912 6.9375 101.333V156.037C6.9375 159.679 8.51504 164.157 10.4406 165.966L42.9194 196.705C44.8449 198.515 46.4225 197.03 46.4225 193.388V138.684C46.3993 135.042 44.8217 130.564 42.9194 128.755Z" fill="#262626"/>
<path fill-rule="evenodd" clip-rule="evenodd" d="M35.2859 177.148C37.4666 164.528 39.8794 145.11 41.3641 137.037C44.7744 118.687 47.1175 110.706 51.6181 110.706C56.1188 110.706 58.4619 118.71 61.8722 137.037C63.3801 145.134 65.7928 164.528 67.9504 177.148C77.2532 231.11 103.19 262.127 103.19 320.519C103.19 366.453 76.65 399.999 51.5949 399.999C26.5399 399.999 0 366.477 0 320.519C0.0231992 262.127 25.9599 231.11 35.2859 177.148Z" fill="#333333"/>
<path fill-rule="evenodd" clip-rule="evenodd" d="M36.4694 315.369L47.721 295.859C45.401 294.513 43.8235 292.008 43.8235 289.108H21.3203C21.3203 300.336 27.4217 310.126 36.4694 315.369Z" fill="#EDC31D"/>
<path fill-rule="evenodd" clip-rule="evenodd" d="M55.5156 295.859L66.7672 315.369C75.8149 310.126 81.9163 300.336 81.9163 289.131H59.4131C59.3899 292.008 57.8355 294.513 55.5156 295.859Z" fill="#EDC31D"/>
<path fill-rule="evenodd" clip-rule="evenodd" d="M51.6178 281.336C53.033 281.336 54.3553 281.708 55.5153 282.38L66.7669 262.87C62.3126 260.295 57.1392 258.81 51.6178 258.81C46.0964 258.81 40.923 260.295 36.4688 262.87L47.7203 282.38C48.8803 281.708 50.2027 281.336 51.6178 281.336Z" fill="#EDC31D"/>
<path d="M57.1329 291.876C58.658 288.828 57.4236 285.121 54.3757 283.596C51.3278 282.071 47.6206 283.305 46.0955 286.353C44.5704 289.401 45.8048 293.108 48.8527 294.634C51.9006 296.159 55.6078 294.924 57.1329 291.876Z" fill="#EDC31D"/>
<path fill-rule="evenodd" clip-rule="evenodd" d="M83.2615 289.108C83.2615 306.577 69.0868 320.752 51.6178 320.752C34.1489 320.752 19.9742 306.577 19.9742 289.108C19.9742 271.639 34.1489 257.464 51.6178 257.464C69.0868 257.464 83.2615 271.639 83.2615 289.108ZM17.8398 289.108C17.8398 307.76 32.9657 322.886 51.6178 322.886C70.27 322.886 85.3958 307.76 85.3958 289.108C85.3958 270.456 70.27 255.33 51.6178 255.33C32.9657 255.33 17.8398 270.456 17.8398 289.108Z" fill="#EDC31D"/>
<path fill-rule="evenodd" clip-rule="evenodd" d="M100.545 345.18C93.2146 377.983 71.9409 399.999 51.6185 399.999C31.296 399.999 10.0455 377.983 2.69141 345.18C17.7477 342.257 34.2655 340.633 51.6185 340.633C68.9714 340.633 85.466 342.257 100.545 345.18Z" fill="#D93C3C"/>
<path opacity="0.2" fill-rule="evenodd" clip-rule="evenodd" d="M56.4194 177.148C59.1569 231.11 66.743 262.127 66.743 320.519C66.743 366.453 58.9713 399.999 51.6172 399.999C76.6723 399.999 103.212 366.477 103.212 320.519C103.212 262.127 77.2755 231.11 67.9726 177.148C65.7919 164.528 63.3792 145.11 61.8944 137.037C58.4842 118.687 56.141 110.706 51.6404 110.706C52.9627 110.706 53.6587 118.71 54.6563 137.037C55.0739 145.11 55.7698 164.528 56.4194 177.148Z" fill="black"/>
<path opacity="0.2" fill-rule="evenodd" clip-rule="evenodd" d="M64.0751 177.148C71.1741 231.11 90.963 262.127 90.963 320.519C90.963 366.453 70.7333 399.999 51.6172 399.999C76.6723 399.999 103.212 366.477 103.212 320.519C103.212 262.127 77.2755 231.11 67.9726 177.148C65.7919 164.528 63.3792 145.11 61.8944 137.037C58.4842 118.687 56.141 110.706 51.6404 110.706C55.0739 110.706 56.8602 118.71 59.4585 137.037C60.5721 145.11 62.428 164.528 64.0751 177.148Z" fill="black"/>
<path opacity="0.1" fill-rule="evenodd" clip-rule="evenodd" d="M46.7686 177.149C47.4182 164.528 48.1374 145.111 48.5782 137.037C49.5989 118.687 50.2949 113.583 51.6173 113.583C48.1838 113.583 46.3974 118.687 43.7991 137.037C42.6624 145.134 40.8064 164.528 39.1593 177.149C32.0604 231.11 12.2715 262.127 12.2715 320.519C12.2715 366.454 32.5012 395.569 51.6173 395.569C44.1703 395.569 36.3058 366.454 36.3058 320.519C36.3058 262.127 44.0079 231.11 46.7686 177.149Z" fill="white"/>
<path opacity="0.15" fill-rule="evenodd" clip-rule="evenodd" d="M44.0545 177.148C45.0752 164.528 46.1888 145.11 46.8848 137.037C47.3487 131.632 47.7663 127.363 48.1839 124.045C47.0704 127.386 46.0496 133.139 44.8664 142.512C43.8689 150.26 42.2913 168.843 40.853 180.93C34.7052 232.617 17.6074 262.312 17.6074 318.245C17.6074 351.629 27.6759 375.733 39.7626 385.43C32.9421 373.158 27.7223 350.4 27.7223 320.542C27.7223 262.127 39.7394 231.109 44.0545 177.148Z" fill="white"/>
<path fill-rule="evenodd" clip-rule="evenodd" d="M78.0664 9.99869C78.0664 9.11712 78.7856 8.39795 79.6672 8.39795C80.5487 8.39795 81.2679 9.11712 81.2679 9.99869V64.4703C81.2679 65.3519 80.5487 66.071 79.6672 66.071C78.7856 66.071 78.0664 65.3519 78.0664 64.4703V9.99869Z" fill="#CCCCCC"/>
<path fill-rule="evenodd" clip-rule="evenodd" d="M78.0664 74.423C78.0664 73.5414 78.7856 72.8223 79.6672 72.8223C80.5487 72.8223 81.2679 73.5414 81.2679 74.423V87.2521C81.2679 88.1337 80.5487 88.8529 79.6672 88.8529C78.7856 88.8529 78.0664 88.1337 78.0664 87.2521V74.423Z" fill="#CCCCCC"/>
<path fill-rule="evenodd" clip-rule="evenodd" d="M50.0195 73.0309C50.0195 72.1494 50.7387 71.4302 51.6203 71.4302C52.5018 71.4302 53.221 72.1494 53.221 73.0309V93.8638C53.221 94.7453 52.5018 95.4645 51.6203 95.4645C50.7387 95.4645 50.0195 94.7453 50.0195 93.8638V73.0309Z" fill="#CCCCCC"/>
<path fill-rule="evenodd" clip-rule="evenodd" d="M50.0195 32.9894C50.0195 32.1078 50.7387 31.3887 51.6203 31.3887C52.5018 31.3887 53.221 32.1078 53.221 32.9894V65.0274C53.221 65.909 52.5018 66.6282 51.6203 66.6282C50.7387 66.6282 50.0195 65.909 50.0195 65.0274V32.9894Z" fill="#CCCCCC"/>
<path fill-rule="evenodd" clip-rule="evenodd" d="M50.0195 1.60074C50.0195 0.719176 50.7387 0 51.6203 0C52.5018 0 53.221 0.719176 53.221 1.60074V25.0551C53.221 25.9366 52.5018 26.6558 51.6203 26.6558C50.7387 26.6558 50.0195 25.9366 50.0195 25.0551V1.60074Z" fill="#CCCCCC"/>
<path fill-rule="evenodd" clip-rule="evenodd" d="M21.9707 58.3922C21.9707 57.5107 22.6899 56.7915 23.5714 56.7915C24.453 56.7915 25.1722 57.5107 25.1722 58.3922V87.2288C25.1722 88.1104 24.453 88.8295 23.5714 88.8295C22.6899 88.8295 21.9707 88.1104 21.9707 87.2288V58.3922Z" fill="#CCCCCC"/>
<path fill-rule="evenodd" clip-rule="evenodd" d="M21.9707 14.1051C21.9707 13.2236 22.6899 12.5044 23.5714 12.5044C24.453 12.5044 25.1722 13.2236 25.1722 14.1051V49.6926C25.1722 50.5742 24.453 51.2934 23.5714 51.2934C22.6899 51.2934 21.9707 50.5742 21.9707 49.6926V14.1051Z" fill="#CCCCCC"/>
</svg>
