<svg width="300" height="400" viewBox="0 0 300 400" fill="none" xmlns="http://www.w3.org/2000/svg">
<mask id="mask0_4311_8841" style="mask-type:luminance" maskUnits="userSpaceOnUse" x="0" y="0" width="300" height="401">
<path d="M195.646 0.00244141C136.344 90.215 299.293 79.6141 299.293 240.805C299.293 328.709 232.303 400.002 149.648 400.002C66.9922 400.002 0.00195312 328.735 0.00195312 240.805C0.00195312 199.976 17.7401 154.45 53.1376 120.102C50.9335 156.654 48.1783 173.999 73.1324 174.707C119.787 176.045 90.8967 19.5774 195.646 0.00244141Z" fill="white"/>
</mask>
<g mask="url(#mask0_4311_8841)">
<path d="M299.293 0.00146484H0.00195312V399.975H299.293V0.00146484Z" fill="url(#paint0_linear_4311_8841)"/>
</g>
<path fill-rule="evenodd" clip-rule="evenodd" d="M195.645 0C136.343 90.2125 299.293 79.6117 299.293 240.803C299.293 315.665 250.697 378.457 185.228 395.434C96.6425 340.646 176.936 148.308 159.802 90.37C167.884 52.7683 176.648 18.7615 195.645 0Z" fill="#B20234"/>
<path fill-rule="evenodd" clip-rule="evenodd" d="M145.186 249.068C148.439 217.292 154.238 185.201 158.174 157.281L167.017 146.785L183.05 118.184C207.085 174.469 166.204 281.606 208.476 274.337C238.258 269.221 178.143 324.141 178.143 324.141L145.186 249.068Z" fill="#B20234"/>
<path fill-rule="evenodd" clip-rule="evenodd" d="M272.553 331.619C252.033 362.976 221.175 386.119 185.227 395.461C173.13 387.982 164.182 377.906 157.701 365.967L232.327 261.847L226.397 231.435L209.026 179.874C209.026 179.822 294.227 232.774 272.553 331.619Z" fill="#B20234"/>
<path fill-rule="evenodd" clip-rule="evenodd" d="M73.1055 174.705C119.786 176.043 90.8961 19.5749 195.619 0C118.684 29.2312 143.113 210.68 73.1055 174.705Z" fill="#FFCB00"/>
<path fill-rule="evenodd" clip-rule="evenodd" d="M33.1147 340.672C12.4114 313.356 0 278.641 0 240.803C0 199.974 17.7381 154.448 53.1357 120.1C52.5846 129.31 51.9811 137.313 51.8237 144.135C51.7974 144.135 -14.878 267.856 33.1147 340.672Z" fill="#FFCB00"/>
<mask id="mask1_4311_8841" style="mask-type:luminance" maskUnits="userSpaceOnUse" x="49" y="90" width="199" height="310">
<path d="M149.646 399.975C133.771 399.975 118.499 397.325 104.146 392.471C101.417 391.238 23.3801 354.528 58.8825 257.782C57.5181 300.71 78.4575 320.075 93.9652 317.845C116.558 314.591 109.788 292.208 103.7 267.884C80.373 174.418 167.778 166.598 159.827 90.3979C217.345 132.041 170.664 198.244 162.425 242.878C152.559 296.249 221.989 306.588 219.208 230.702C218.709 217.189 215.77 200.474 209.053 179.823C276.909 254.607 253.923 399.975 149.646 399.975Z" fill="white"/>
</mask>
<g mask="url(#mask1_4311_8841)">
<path d="M276.91 90.3711H23.3809V399.975H276.91V90.3711Z" fill="url(#paint1_linear_4311_8841)"/>
</g>
<path fill-rule="evenodd" clip-rule="evenodd" d="M149.646 399.974C133.771 399.974 118.499 397.324 104.146 392.469C103.543 392.207 99.3967 390.239 93.5977 386.355C167.961 413.907 222.908 327.263 222.908 327.263C194.332 350.643 161.323 349.147 161.323 349.147C274.101 308.344 209.053 179.822 209.053 179.822C276.909 254.605 253.923 399.974 149.646 399.974Z" fill="#E50040"/>
<path fill-rule="evenodd" clip-rule="evenodd" d="M70.5586 305.406C77.4859 314.852 86.355 318.919 93.9383 317.817C116.531 314.563 109.761 292.181 103.673 267.856C80.3461 174.39 167.751 166.571 159.8 90.3701C203.253 134.112 127.84 199.607 139.596 246.576C139.596 246.576 121.044 223.931 131.802 195.749C116.163 241.8 126.791 268.539 131.934 288.218C143.059 330.858 86.25 359.538 70.5586 305.406Z" fill="#F8FBB9"/>
<defs>
<linearGradient id="paint0_linear_4311_8841" x1="305.982" y1="394.601" x2="26.9587" y2="47.3059" gradientUnits="userSpaceOnUse">
<stop stop-color="#E50040"/>
<stop offset="0.64" stop-color="#FF6600"/>
<stop offset="1" stop-color="#FFCB00"/>
</linearGradient>
<linearGradient id="paint1_linear_4311_8841" x1="243.226" y1="357.208" x2="90.3349" y2="173.215" gradientUnits="userSpaceOnUse">
<stop stop-color="#FF6600"/>
<stop offset="1" stop-color="#FFCB00"/>
</linearGradient>
</defs>
</svg>
