<svg width="256" height="400" viewBox="0 0 256 400" fill="none" xmlns="http://www.w3.org/2000/svg">
<path fill-rule="evenodd" clip-rule="evenodd" d="M158.02 396.373C121.246 394.837 79.4368 371.714 73.4641 336.006C70.0511 341.51 58.447 335.708 60.4948 343.131C34.7696 326.876 36.9454 310.836 45.1791 280.29C36.2628 284.769 22.4829 276.578 20.6058 286.348C12.2867 246.971 13.5239 230.332 21.7577 201.792C7.55119 222.781 0 247.525 0 272.781C0 343.045 57.1245 399.999 127.645 399.999C138.14 400.042 148.336 398.805 158.02 396.373Z" fill="url(#paint0_linear_4311_8843)"/>
<path fill-rule="evenodd" clip-rule="evenodd" d="M93.8996 307.123C98.4645 343.386 121.118 374.231 159.173 378.668C185.538 381.782 213.567 370.903 230.29 348.378C236.604 339.931 241.809 330.63 245.819 320.775C224.275 349.444 159.77 338.224 168.26 294.879C171.502 276.663 161.818 251.62 150.555 237.755C157.338 255.673 137.884 278.753 125.384 258.446C113.865 239.76 124.702 196.629 134.343 180.332C128.456 183.66 128.285 174.743 123.763 180.503C144.028 148.634 125.299 135.409 105.248 106.1C119.454 136.646 111.86 157.806 100.427 179.863C86.9031 205.887 69.4969 229.223 77.0481 262.627C83.3621 250.17 93.5157 239.163 105.248 231.398C96.5447 255.673 90.7 281.996 93.8996 307.123Z" fill="url(#paint1_linear_4311_8843)"/>
<path fill-rule="evenodd" clip-rule="evenodd" d="M21.7574 201.791C5.11923 235.878 4.35133 275.469 19.5817 310.195C21.5441 300.426 27.9008 292.064 36.8598 287.627C28.7114 318.088 41.2113 352.943 66.8512 369.24C64.8461 361.816 64.9314 351.748 68.3444 346.245C74.3171 381.91 124.445 404.265 158.02 396.373C163.609 394.965 168.984 393.258 174.274 391.253C111.689 399.018 66.0833 327.473 85.1106 267.832C78.2847 273.89 73.2932 281.868 70.9468 290.699C54.2233 244.283 69.2403 213.737 91.9365 175.085C103.285 155.631 113.012 135.025 105.247 106.1C125.298 135.409 128.029 176.365 107.807 208.148C112.329 202.474 118.771 195.435 124.658 192.107C115.102 208.361 111.902 247.44 123.421 266.125C136.006 286.433 161.134 270.946 154.351 253.028C165.614 266.893 156.826 284.342 153.583 302.559C143.174 360.75 221.032 375.554 245.861 320.776C251.919 305.972 255.29 289.76 255.29 272.823C255.29 216.552 206.399 176.578 219.155 129.607C200.895 142.32 196.288 158.191 195.776 178.967C195.477 192.619 196.245 205.929 188.481 221.672C192.278 209.982 193.003 172.141 180.802 169.197C171.629 167.022 151.663 163.779 156.228 171.97C144.965 164.078 153.669 163.353 154.436 151.45C156.868 115.486 149.402 95.0509 128.071 70.2216C114.249 54.1807 91.3819 40.2302 74.6584 18.6006C77.3888 42.6193 96.2027 59.0442 90.614 85.0253C89.5048 69.923 82.3802 53.0288 71.8854 45.2643C78.9673 61.5186 79.4365 80.0765 74.9144 97.0987C66.4246 128.882 42.2779 154.138 33.7028 186.604C27.2608 211.39 30.7591 235.75 44.8803 257.252C28.7114 247.226 18.6858 221.117 21.7574 201.791Z" fill="url(#paint2_linear_4311_8843)"/>
<path fill-rule="evenodd" clip-rule="evenodd" d="M118.771 75.2558C140.059 100.042 150.725 128.199 148.293 164.121C147.525 176.066 146.117 191.083 157.465 198.976C152.815 190.742 160.324 182.252 169.496 184.428C181.697 187.372 190.87 206.655 188.395 221.629C199.658 191.638 191.723 153.967 177.9 126.237C162.201 94.539 136.476 66.8087 109.812 45.7337C93.7282 33.0204 78.7112 18.9846 75.9808 0C74.2743 6.82592 73.9757 12.9266 74.573 18.6006C77.1327 40.5289 104.948 59.2149 118.771 75.2558Z" fill="url(#paint3_linear_4311_8843)"/>
<defs>
<linearGradient id="paint0_linear_4311_8843" x1="96.9006" y1="461.487" x2="5.38578" y2="-164.151" gradientUnits="userSpaceOnUse">
<stop stop-color="#ED1C24"/>
<stop offset="1" stop-color="#FCEE21"/>
</linearGradient>
<linearGradient id="paint1_linear_4311_8843" x1="184.283" y1="448.541" x2="92.7679" y2="-177.097" gradientUnits="userSpaceOnUse">
<stop stop-color="#ED1C24"/>
<stop offset="1" stop-color="#FCEE21"/>
</linearGradient>
<linearGradient id="paint2_linear_4311_8843" x1="167.722" y1="510.898" x2="76.2071" y2="-114.742" gradientUnits="userSpaceOnUse">
<stop stop-color="#ED1C24"/>
<stop offset="1" stop-color="#FCEE21"/>
</linearGradient>
<linearGradient id="paint3_linear_4311_8843" x1="204.249" y1="578.798" x2="112.734" y2="-46.8407" gradientUnits="userSpaceOnUse">
<stop stop-color="#ED1C24"/>
<stop offset="1" stop-color="#FCEE21"/>
</linearGradient>
</defs>
</svg>
