<svg width="330" height="400" viewBox="0 0 330 400" fill="none" xmlns="http://www.w3.org/2000/svg">
<path d="M168.869 132.698C170.981 132.698 172.684 134.401 172.684 136.512C172.684 138.624 170.981 140.327 168.869 140.327C166.758 140.327 165.055 138.624 165.055 136.512C165.055 134.401 166.758 132.698 168.869 132.698ZM165.055 117.03C165.055 114.918 166.758 113.215 168.869 113.215C170.981 113.215 172.684 114.918 172.684 117.03C172.684 119.142 170.981 120.845 168.869 120.845C166.758 120.777 165.055 119.074 165.055 117.03ZM158.583 89.7139C158.583 84.06 163.215 79.4278 168.869 79.4278C174.523 79.4278 179.156 84.06 179.156 89.7139C179.156 95.3679 174.523 100 168.869 100C163.215 100 158.583 95.436 158.583 89.7139ZM214.373 343.937L264.237 314.714C264.646 311.24 264.85 307.63 264.85 304.019C264.85 293.937 263.283 284.196 260.422 275.068L98.8423 369.687C116.349 388.352 141.213 400 168.801 400C208.583 400 242.711 375.818 257.289 341.349L224.183 360.763C222.616 361.649 220.981 362.125 219.278 362.125C215.94 362.125 212.67 360.354 210.831 357.289C208.175 352.657 209.741 346.662 214.373 343.937ZM206.54 215.736L134.878 257.698C133.311 258.583 131.608 259.06 129.905 259.06C126.567 259.06 123.365 257.357 121.526 254.224C118.801 249.591 120.368 243.665 125 240.872L180.041 208.651H179.973C179.837 208.583 179.632 208.583 179.496 208.515C175.954 206.88 173.91 202.997 173.91 199.046V179.155H185.491C187.126 179.155 188.284 177.52 187.807 175.954L185.354 168.869C187.534 166.962 189.374 164.101 190.804 159.741L206.676 163.079C209.673 163.692 212.057 160.559 210.627 157.834L193.597 125.954C192.03 87.1935 177.861 45.8447 168.869 45.8447C159.878 45.8447 145.709 87.2616 144.142 125.954L127.112 157.834C125.682 160.559 128.066 163.692 131.063 163.079L146.935 159.741C148.365 164.101 150.205 166.962 152.384 168.869L150 175.954C149.455 177.52 150.613 179.155 152.316 179.155H163.897V199.046C163.897 202.997 161.921 206.812 158.311 208.515C158.175 208.583 157.97 208.651 157.766 208.719C109.946 214.237 72.8887 254.768 72.8887 304.019C72.8887 307.902 73.093 311.717 73.5699 315.463L181.472 252.248C183.038 251.362 184.741 250.886 186.376 250.886C189.714 250.886 192.984 252.657 194.823 255.654C197.548 260.286 195.981 266.281 191.349 269.006L78.1339 335.286C80.3818 341.894 83.3791 348.161 86.9895 354.019L252.657 257.016C242.303 238.692 226.09 224.046 206.54 215.736Z" fill="#FBB725"/>
<path d="M240.666 178.815C240.666 184.946 235.693 189.918 229.562 189.918C235.693 189.918 240.666 194.891 240.666 201.022C240.666 194.891 245.639 189.918 251.77 189.918C245.639 189.85 240.666 184.946 240.666 178.815Z" fill="#FBB725"/>
<path d="M82.357 83.7876C82.357 96.4579 72.0709 106.676 59.4688 106.676C72.139 106.676 82.357 116.962 82.357 129.564C82.357 116.894 92.6431 106.676 105.245 106.676C92.6431 106.744 82.357 96.4579 82.357 83.7876Z" fill="#FBB725"/>
<path d="M251.772 0C251.772 18.3924 236.853 33.3106 218.461 33.3106C236.853 33.3106 251.772 48.2289 251.772 66.6213C251.772 48.2289 266.69 33.3106 285.082 33.3106C266.69 33.3106 251.772 18.3924 251.772 0Z" fill="#FBB725"/>
<path d="M32.0163 195.503C32.0163 204.359 24.8637 211.511 16.0081 211.511C7.15258 211.511 0 204.359 0 195.503C0 186.648 7.15258 179.495 16.0081 179.495C24.8637 179.495 32.0163 186.648 32.0163 195.503Z" fill="#FB7425"/>
<path d="M329.632 122.615C329.632 128.201 325.136 132.697 319.55 132.697C313.965 132.697 309.469 128.201 309.469 122.615C309.469 117.029 313.965 112.533 319.55 112.533C325.068 112.465 329.632 117.029 329.632 122.615Z" fill="#FB7425"/>
<path d="M302.179 236.852C302.179 240.735 299.046 243.869 295.163 243.869C291.28 243.869 288.146 240.735 288.146 236.852C288.146 232.969 291.28 229.836 295.163 229.836C299.046 229.836 302.179 232.969 302.179 236.852Z" fill="#FB7425"/>
</svg>
