<svg width="400" height="400" viewBox="0 0 400 400" fill="none" xmlns="http://www.w3.org/2000/svg">
<path d="M182.998 111.738L150.631 14.7147L200.364 78.2009L250.41 0L200.39 158.976L201.56 120.317L215.287 75.7311L201.3 97.6211L181.854 72.7934L189.783 96.6072L182.998 111.738Z" fill="#FBB725"/>
<path d="M141.141 132.069L64.6035 64.2147L139.425 94.32L143.636 1.58643L179.825 164.28L161.497 130.197L151.124 84.7269L149.928 110.698L120.68 98.9216L139.451 115.56L141.141 132.069Z" fill="#FBB725"/>
<path d="M115.065 170.623L14.8438 150.111L94.7085 138.776L51.9944 56.3633L164.668 179.176L131.755 158.794L100.012 124.607L111.971 147.693L80.7477 152.113L105.342 157.156L115.065 170.623Z" fill="#FBB725"/>
<path d="M111.764 217.028L14.7147 249.369L78.2009 199.636L0 149.59L158.976 199.636L120.317 198.44L75.7311 184.713L97.6211 198.7L72.7934 218.146L96.6072 210.217L111.764 217.028Z" fill="#FBB725"/>
<path d="M132.094 258.858L64.2142 335.395L94.3455 260.574L1.58594 256.363L164.279 220.174L130.196 238.502L84.7264 248.901L110.698 250.071L98.9211 279.318L115.56 260.548L132.094 258.858Z" fill="#FBB725"/>
<path d="M170.622 284.935L150.109 385.155L138.774 305.291L56.3359 348.005L179.175 235.331L158.793 268.244L124.632 299.987L147.692 288.028L152.111 319.251L157.155 294.658L170.622 284.935Z" fill="#FBB725"/>
<path d="M217.003 288.262L249.37 385.285L199.637 321.799L149.617 400L199.637 241.024L198.441 279.683L184.714 324.269L198.701 302.379L218.147 327.207L210.218 303.393L217.003 288.262Z" fill="#FBB725"/>
<path d="M258.858 267.932L335.395 335.786L260.574 305.68L256.363 398.414L220.174 235.721L238.502 269.804L248.901 315.273L250.071 289.302L279.318 301.079L260.548 284.44L258.858 267.932Z" fill="#FBB725"/>
<path d="M284.934 229.377L385.154 249.89L305.29 261.225L348.004 343.663L235.33 220.824L268.243 241.206L299.986 275.393L288.027 252.307L319.25 247.888L294.657 242.844L284.934 229.377Z" fill="#FBB725"/>
<path d="M288.261 182.997L385.284 150.63L321.798 200.364L399.999 250.409L241.023 200.364L279.682 201.56L324.268 215.286L302.378 201.3L327.206 181.854L303.392 189.783L288.261 182.997Z" fill="#FBB725"/>
<path d="M267.932 141.141L335.786 64.604L305.68 139.425L398.414 143.637L235.721 179.826L269.804 161.497L315.273 151.124L289.302 149.928L301.079 120.681L284.44 139.451L267.932 141.141Z" fill="#FBB725"/>
<path d="M229.377 115.066L249.89 14.8452L261.225 94.7099L343.663 51.9958L220.824 164.67L241.206 131.757L275.393 100.039L252.307 111.972L247.888 80.7492L242.844 105.343L229.377 115.066Z" fill="#FBB725"/>
</svg>
